<svg xmlns="http://www.w3.org/2000/svg" viewBox="0 0 2500 300"><defs id="defs4832">
    <style id="style4830">.cls-1{fill:#18397a;}.cls-2{fill:#fff;}</style>
  </defs><g transform="translate(0 0) scale(1.5789473684210527) translate(0 0)"><title id="title4834">hda-desktop-de</title><g data-name="Ebene 2 Kopie 3" id="Ebene_2_Kopie_3"/><g data-name="Ebene 4" id="Ebene_4">
    <rect style="fill:#18397a" y="0" x="0" id="rect4983" height="190" width="400" class="cls-1"/>
    <path style="fill:#ffffff" id="path4985" d="m 279,158 v 0 a 87.92,87.92 0 1 0 -157.6,0 h 3.67 a 84.64,84.64 0 1 1 150.26,0 H 279" class="cls-2"/>
    <path style="fill:#ffffff" id="path4987" d="m 373.86,96.17 3.07,-12.48 -7.74,-14.24 C 347.37,58.92 303.76,37.85 214.73,24.6 l -21,36 c 18.47,0.31 55.4,0.92 136.65,18 10.4,2.76 31.2,8.27 40.16,13.33 1.29,0.72 3.86,2.18 3.28,4.22" class="cls-2"/>
    <path style="fill:#ffffff" id="path4989" d="m 22.29,133.37 c 10.16,-2.44 30.48,-7.31 66.81,-11.42 12.11,-1.37 36.34,-4.1 175.3,2.36 l -8.77,24.47 c -44.94,-1.39 -134.81,-4.15 -229.47,7.52 l -7.91,-14.77 4,-8.16" class="cls-2"/>
    <path style="fill:#ffffff" id="path4991" d="m 23.29,116.79 c -0.07,-0.35 -0.2,-1.07 2,-1.91 3.19,-1.25 9.55,-3.74 33.92,-7.52 8.12,-1.26 24.37,-3.78 99.41,-5.32 l 14.2,-22.65 C 136.21,78.52 63,76.78 25.72,90.1 L 16,163 23.29,116.79" class="cls-2"/>
    <path style="fill:#ffffff" id="path4993" d="M 183.52,74.38 C 226.33,78.1 312,85.54 377.28,104.22 l 7.25,6.67 2.62,18.29 C 364.63,124.03 319.6,113.74 160.93,110.39 l 22.58,-36" class="cls-2"/>
    <path style="fill:#ffffff" id="path4995" d="m 29.08,76 c -1,-2.26 -3,-6.76 0.61,-10.47 1.21,-1.24 3.63,-3.71 15.94,-14.87 19.4,-8.63 58.19,-25.88 152.1,-11.06 L 186.12,60.83 C 164.27,59.22 120.56,56 77,61.67 c -14.54,1.89 -43.61,5.67 -46.13,8.62 -0.84,1 -2.52,3 -1.75,5.74" class="cls-2"/>
  </g></g><g transform="translate(698.244947368421 55.5565)"><g transform="translate(0 91.44)" style="fill:rgb(20, 60, 112)"><path d="M51.375-57L51.375 0L39.656 0L39.656-24.547L16.797-24.547L16.797 0L5.078 0L5.078-57L16.797-57L16.797-34L39.656-34L39.656-57L51.375-57ZM105.234 0L93.828 0Q93.047-1.450 92.703-3.596L92.703-3.596Q88.594 1 82.031 1L82.031 1Q75.828 1 71.742-2.647Q67.656-6.293 67.656-11.842L67.656-11.842Q67.656-18.659 72.641-22.306Q77.625-25.952 87.031-26L87.031-26L92.234-26L92.234-28.362Q92.234-31.212 90.727-32.926Q89.219-34.641 85.984-34.641L85.984-34.641Q83.125-34.641 81.508-33.399Q79.891-32.157 79.891-30L79.891-30L68.594-30Q68.594-33.544 70.859-36.560Q73.125-39.577 77.266-41.288Q81.406-43 86.563-43L86.563-43Q94.375-43 98.969-39.082Q103.563-35.165 103.563-28.063L103.563-28.063L103.563-9.755Q103.594-3.746 105.234-0.671L105.234-0.671L105.234 0ZM84.500-7.641L84.500-7.641Q87-7.641 89.109-8.788Q91.219-9.936 92.234-11.875L92.234-11.875L92.234-19.391L88.016-19.391Q79.531-19.391 78.984-13.330L78.984-13.330L78.953-12.651Q78.953-10.469 80.438-9.055Q81.922-7.641 84.500-7.641ZM144.969 0L144.656-4.073Q140.469 1 133.094 1L133.094 1Q126.297 1 122.719-2.902Q119.141-6.804 119.063-14.343L119.063-14.343L119.063-42L130.359-42L130.359-14.741Q130.359-8.141 136.375-8.141L136.375-8.141Q142.109-8.141 144.266-12.119L144.266-12.119L144.266-42L155.594-42L155.594 0L144.969 0ZM195.234-11.502L195.234-11.502Q195.234-13.580 193.180-14.784Q191.125-15.988 186.594-16.929L186.594-16.929Q171.516-20.098 171.516-29.792L171.516-29.792Q171.516-35.439 176.188-39.220Q180.859-43 188.391-43L188.391-43Q196.438-43 201.266-39.196Q206.094-35.392 206.094-29.322L206.094-29.322L194.797-29.322Q194.797-31.767 193.234-33.360Q191.672-34.953 188.359-34.953L188.359-34.953Q185.500-34.953 183.938-33.651Q182.375-32.349 182.375-30.344L182.375-30.344Q182.375-28.450 184.156-27.282Q185.938-26.115 190.156-25.270Q194.375-24.426 197.266-23.360L197.266-23.360Q206.203-20.071 206.203-11.971L206.203-11.971Q206.203-6.175 201.242-2.587Q196.281 1 188.438 1L188.438 1Q183.125 1 179-0.906Q174.875-2.812 172.531-6.122Q170.188-9.431 170.188-13.275L170.188-13.275L180.891-13.275Q181.047-10.248 183.117-8.632Q185.188-7.016 188.672-7.016L188.672-7.016Q191.906-7.016 193.570-8.251Q195.234-9.487 195.234-11.502ZM247.578-21.322L247.578-21.322Q247.578-31.235 252.016-37.118Q256.453-43 264.141-43L264.141-43Q270.313-43 274.344-38.396L274.344-38.396L274.344-60L285.672-60L285.672 0L275.469 0L274.922-4.495Q270.703 1 264.063 1L264.063 1Q256.609 1 252.094-4.906Q247.578-10.812 247.578-21.322ZM258.875-20.489L258.875-20.489Q258.875-14.511 260.945-11.326Q263.016-8.141 266.953-8.141L266.953-8.141Q272.188-8.141 274.344-12.592L274.344-12.592L274.344-29.376Q272.234-33.828 267.031-33.828L267.031-33.828Q258.875-33.828 258.875-20.489ZM321.797 1L321.797 1Q312.500 1 306.656-4.725Q300.813-10.451 300.813-19.988L300.813-19.988L300.813-21.086Q300.813-27.471 303.273-32.514Q305.734-37.557 310.250-40.278Q314.766-43 320.547-43L320.547-43Q329.219-43 334.195-37.508Q339.172-32.016 339.172-21.942L339.172-21.942L339.172-17.313L312.266-17.313Q312.813-13.144 315.563-10.626Q318.313-8.109 322.531-8.109L322.531-8.109Q329.063-8.109 332.734-12.875L332.734-12.875L338.281-6.651Q335.734-3.045 331.398-1.023Q327.063 1 321.797 1ZM320.500-33.859L320.500-33.859Q317.141-33.859 315.055-31.565Q312.969-29.271 312.375-25L312.375-25L328.078-25L328.078-25.918Q328-29.714 326.047-31.787Q324.094-33.859 320.500-33.859ZM378.250-42.500L378.094-31.641Q375.781-31.953 374.031-31.953L374.031-31.953Q367.625-31.953 365.625-27.616L365.625-27.616L365.625 0L354.344 0L354.344-42L365-42L365.313-37.194Q368.719-43 374.734-43L374.734-43Q376.609-43 378.250-42.500L378.250-42.500ZM456.141 0L452.188-11.500L431.641-11.500L427.734 0L415.281 0L436.453-57L447.313-57L468.594 0L456.141 0ZM441.875-42.593L434.813-21L449.031-21L441.875-42.593ZM503.234-11.502L503.234-11.502Q503.234-13.580 501.180-14.784Q499.125-15.988 494.594-16.929L494.594-16.929Q479.516-20.098 479.516-29.792L479.516-29.792Q479.516-35.439 484.188-39.220Q488.859-43 496.391-43L496.391-43Q504.438-43 509.266-39.196Q514.094-35.392 514.094-29.322L514.094-29.322L502.797-29.322Q502.797-31.767 501.234-33.360Q499.672-34.953 496.359-34.953L496.359-34.953Q493.500-34.953 491.938-33.651Q490.375-32.349 490.375-30.344L490.375-30.344Q490.375-28.450 492.156-27.282Q493.938-26.115 498.156-25.270Q502.375-24.426 505.266-23.360L505.266-23.360Q514.203-20.071 514.203-11.971L514.203-11.971Q514.203-6.175 509.242-2.587Q504.281 1 496.438 1L496.438 1Q491.125 1 487-0.906Q482.875-2.812 480.531-6.122Q478.188-9.431 478.188-13.275L478.188-13.275L488.891-13.275Q489.047-10.248 491.117-8.632Q493.188-7.016 496.672-7.016L496.672-7.016Q499.906-7.016 501.570-8.251Q503.234-9.487 503.234-11.502ZM532.563-52L543.859-52L543.859-42L551.078-42L551.078-33.719L543.859-33.719L543.859-12.664Q543.859-10.324 544.758-9.311Q545.656-8.297 548.188-8.297L548.188-8.297Q550.063-8.297 551.516-8.578L551.516-8.578L551.516-0.016Q548.188 1 544.672 1L544.672 1Q532.797 1 532.563-10.984L532.563-10.984L532.563-33.719L526.391-33.719L526.391-42L532.563-42L532.563-52ZM589.250-42.500L589.094-31.641Q586.781-31.953 585.031-31.953L585.031-31.953Q578.625-31.953 576.625-27.616L576.625-27.616L576.625 0L565.344 0L565.344-42L576-42L576.313-37.194Q579.719-43 585.734-43L585.734-43Q587.609-43 589.250-42.500L589.250-42.500ZM598.578-20.882L598.578-21.400Q598.578-27.706 601-32.647Q603.422-37.588 607.977-40.294Q612.531-43 618.547-43L618.547-43Q627.094-43 632.508-37.745Q637.922-32.490 638.547-23.471L638.547-23.471L638.625-20.569Q638.625-10.812 633.195-4.906Q627.766 1 618.625 1Q609.484 1 604.031-4.882Q598.578-10.765 598.578-20.882L598.578-20.882ZM609.875-20.568L609.875-20.568Q609.875-14.511 612.141-11.310Q614.406-8.109 618.625-8.109L618.625-8.109Q622.719-8.109 625.023-11.271Q627.328-14.433 627.328-21.401L627.328-21.401Q627.328-27.331 625.023-30.595Q622.719-33.859 618.547-33.859L618.547-33.859Q614.406-33.859 612.141-30.619Q609.875-27.379 609.875-20.568ZM654.109-42L664.734-42L665.078-37.156Q669.609-43 677.234-43L677.234-43Q683.953-43 687.234-39.059Q690.516-35.118 690.594-27.283L690.594-27.283L690.594 0L679.297 0L679.297-26.994Q679.297-30.583 677.734-32.205Q676.172-33.828 672.547-33.828L672.547-33.828Q667.781-33.828 665.391-29.771L665.391-29.771L665.391 0L654.109 0L654.109-42ZM704.578-20.882L704.578-21.400Q704.578-27.706 707-32.647Q709.422-37.588 713.977-40.294Q718.531-43 724.547-43L724.547-43Q733.094-43 738.508-37.745Q743.922-32.490 744.547-23.471L744.547-23.471L744.625-20.569Q744.625-10.812 739.195-4.906Q733.766 1 724.625 1Q715.484 1 710.031-4.882Q704.578-10.765 704.578-20.882L704.578-20.882ZM715.875-20.568L715.875-20.568Q715.875-14.511 718.141-11.310Q720.406-8.109 724.625-8.109L724.625-8.109Q728.719-8.109 731.023-11.271Q733.328-14.433 733.328-21.401L733.328-21.401Q733.328-27.331 731.023-30.595Q728.719-33.859 724.547-33.859L724.547-33.859Q720.406-33.859 718.141-30.619Q715.875-27.379 715.875-20.568ZM760.344-42L770.922-42L771.281-37.506Q775.766-43 783.422-43L783.422-43Q791.594-43 794.641-36.570L794.641-36.570Q799.094-43 807.328-43L807.328-43Q814.203-43 817.563-39.004Q820.922-35.009 820.922-26.971L820.922-26.971L820.922 0L809.594 0L809.594-26.916Q809.594-30.505 808.188-32.166Q806.781-33.828 803.234-33.828L803.234-33.828Q798.156-33.828 796.203-28.991L796.203-28.991L796.234 0L784.953 0L784.953-26.885Q784.953-30.551 783.508-32.190Q782.063-33.828 778.578-33.828L778.578-33.828Q773.781-33.828 771.625-29.849L771.625-29.849L771.625 0L760.344 0L760.344-42ZM849.250-42L849.250 0L837.922 0L837.922-42L849.250-42ZM837.266-52.859L837.266-52.859Q837.266-55.406 838.961-57.047Q840.656-58.688 843.594-58.688L843.594-58.688Q846.484-58.688 848.203-57.047Q849.922-55.406 849.922-52.859L849.922-52.859Q849.922-50.281 848.180-48.641Q846.438-47 843.586-47Q840.734-47 839-48.641Q837.266-50.281 837.266-52.859ZM885.797 1L885.797 1Q876.500 1 870.656-4.725Q864.813-10.451 864.813-19.988L864.813-19.988L864.813-21.086Q864.813-27.471 867.273-32.514Q869.734-37.557 874.250-40.278Q878.766-43 884.547-43L884.547-43Q893.219-43 898.195-37.508Q903.172-32.016 903.172-21.942L903.172-21.942L903.172-17.313L876.266-17.313Q876.813-13.144 879.563-10.626Q882.313-8.109 886.531-8.109L886.531-8.109Q893.063-8.109 896.734-12.875L896.734-12.875L902.281-6.651Q899.734-3.045 895.398-1.023Q891.063 1 885.797 1ZM884.500-33.859L884.500-33.859Q881.141-33.859 879.055-31.565Q876.969-29.271 876.375-25L876.375-25L892.078-25L892.078-25.918Q892-29.714 890.047-31.787Q888.094-33.859 884.500-33.859Z"/></g><g transform="translate(0 147.447)" style="fill:rgb(20, 60, 112)"><path d="M26.656-31.625L7.484-3.750L27.422-3.750L27.422 0L2.063 0L2.063-3.453L21.156-31.219L2.375-31.219L2.375-35L26.656-35L26.656-31.625ZM45.094 0L45.094 0Q39.828 0 36.523-3.352Q33.219-6.704 33.219-12.304L33.219-12.304L33.219-13.106Q33.219-16.829 34.695-19.757Q36.172-22.686 38.813-24.343Q41.453-26 44.547-26L44.547-26Q49.594-26 52.391-22.690Q55.188-19.381 55.188-13.197L55.188-13.197L55.188-11.359L37.656-11.359Q37.750-7.889 39.891-5.757Q42.031-3.625 45.328-3.625L45.328-3.625Q47.672-3.625 49.305-4.517Q50.938-5.409 52.156-6.886L52.156-6.886L54.859-4.843Q51.594 0 45.094 0ZM44.547-22.375L44.547-22.375Q41.859-22.375 40.039-20.434Q38.219-18.493 37.797-15L37.797-15L50.766-15L50.766-15.326Q50.578-18.680 48.945-20.527Q47.313-22.375 44.547-22.375ZM62.344-26L66.531-26L66.688-22.332Q69.641-26 74.438-26L74.438-26Q82.641-26 82.703-16.876L82.703-16.876L82.703 0L78.281 0L78.281-16.853Q78.266-19.621 77.008-20.935Q75.750-22.250 73.094-22.250L73.094-22.250Q70.938-22.250 69.313-21.120Q67.688-19.990 66.781-18.160L66.781-18.160L66.781 0L62.344 0L62.344-26ZM92.922-32L97.359-32L97.359-26L102.188-26L102.188-22.578L97.359-22.578L97.359-6.830Q97.359-5.313 98-4.547Q98.641-3.781 100.203-3.781L100.203-3.781Q100.969-3.781 102.313-4.078L102.313-4.078L102.313-0.484Q100.563 0 98.906 0L98.906 0Q95.938 0 94.430-1.768Q92.922-3.535 92.922-6.778L92.922-6.778L92.922-22.578L88.219-22.578L88.219-26L92.922-26L92.922-32ZM121.859-25.672L121.859-21.563Q120.859-21.719 119.688-21.719L119.688-21.719Q115.328-21.719 113.781-18.076L113.781-18.076L113.781 0L109.344 0L109.344-26L113.656-26L113.734-22.579Q115.906-26 119.906-26L119.906-26Q121.188-26 121.859-25.672L121.859-25.672ZM143.422 0L143.328-3.004Q140.750 0 135.750 0L135.750 0Q131.609 0 129.445-2.372Q127.281-4.744 127.250-9.396L127.250-9.396L127.250-26L131.688-26L131.688-9.543Q131.688-3.766 136.469-3.766L136.469-3.766Q141.531-3.766 143.219-7.484L143.219-7.484L143.219-26L147.641-26L147.641 0L143.422 0ZM156.328-26L160.516-26L160.625-22.702Q163.484-26 168.313-26L168.313-26Q173.750-26 175.703-21.900L175.703-21.900Q177-23.734 179.070-24.867Q181.141-26 183.953-26L183.953-26Q192.484-26 192.625-17.107L192.625-17.107L192.625 0L188.188 0L188.188-16.807Q188.188-19.544 186.922-20.897Q185.656-22.250 182.672-22.250L182.672-22.250Q180.203-22.250 178.578-20.805Q176.953-19.359 176.688-16.899L176.688-16.899L176.688 0L172.234 0L172.234-16.699Q172.234-22.250 166.703-22.250L166.703-22.250Q162.359-22.250 160.750-18.606L160.750-18.606L160.750 0L156.328 0L156.328-26ZM221.953 0L217.531 0L217.531-22.578L213.438-22.578L213.438-26L217.531-26L217.531-28.572Q217.531-32.597 219.758-34.798Q221.984-37 226.047-37L226.047-37Q227.578-37 229.078-36.594L229.078-36.594L228.844-33Q227.719-33.219 226.453-33.219L226.453-33.219Q224.297-33.219 223.125-32.021Q221.953-30.822 221.953-28.590L221.953-28.590L221.953-26L227.484-26L227.484-22.578L221.953-22.578L221.953 0ZM250.422 0L250.328-3.004Q247.750 0 242.750 0L242.750 0Q238.609 0 236.445-2.372Q234.281-4.744 234.250-9.396L234.250-9.396L234.250-26L238.688-26L238.688-9.543Q238.688-3.766 243.469-3.766L243.469-3.766Q248.531-3.766 250.219-7.484L250.219-7.484L250.219-26L254.641-26L254.641 0L250.422 0ZM236.422-32.500L236.422-32.500Q236.422-33.578 237.078-34.313Q237.734-35.047 239.023-35.047Q240.313-35.047 240.984-34.313Q241.656-33.578 241.656-32.500Q241.656-31.422 240.984-30.711Q240.313-30 239.023-30Q237.734-30 237.078-30.711Q236.422-31.422 236.422-32.500ZM246.703-32.477L246.703-32.477Q246.703-33.545 247.359-34.280Q248.016-35.016 249.313-35.016Q250.609-35.016 251.273-34.280Q251.938-33.545 251.938-32.477Q251.938-31.409 251.273-30.704Q250.609-30 249.313-30Q248.016-30 247.359-30.704Q246.703-31.409 246.703-32.477ZM275.859-25.672L275.859-21.563Q274.859-21.719 273.688-21.719L273.688-21.719Q269.328-21.719 267.781-18.076L267.781-18.076L267.781 0L263.344 0L263.344-26L267.656-26L267.734-22.579Q269.906-26 273.906-26L273.906-26Q275.188-26 275.859-25.672L275.859-25.672ZM316.969 0L312.328 0Q311.953-0.873 311.703-3.118L311.703-3.118Q308.625 0 304.344 0L304.344 0Q300.516 0 298.063-2.147Q295.609-4.293 295.609-7.568L295.609-7.568Q295.609-11.568 298.680-13.784Q301.750-16 307.328-16L307.328-16L311.641-16L311.641-17.843Q311.641-19.942 310.250-21.190Q308.859-22.438 306.156-22.438L306.156-22.438Q303.797-22.438 302.188-21.380Q300.578-20.322 300.578-18.815L300.578-18.815L296.141-18.815Q296.141-20.633 297.516-22.334Q298.891-24.035 301.242-25.018Q303.594-26 306.422-26L306.422-26Q310.891-26 313.430-23.796Q315.969-21.592 316.063-17.724L316.063-17.724L316.063-5.964Q316.063-2.451 316.969-0.385L316.969-0.385L316.969 0ZM304.984-3.859L304.984-3.859Q307.063-3.859 308.930-4.915Q310.797-5.972 311.641-7.655L311.641-7.655L311.641-12.859L308.172-12.859Q300.031-12.859 300.031-8.191L300.031-8.191Q300.031-6.155 301.422-5.007Q302.813-3.859 304.984-3.859ZM339.422-7.179L339.422-7.179Q339.422-8.897 338.070-9.845Q336.719-10.794 333.359-11.481Q330-12.168 328.023-13.144Q326.047-14.120 325.102-15.467Q324.156-16.814 324.156-18.660L324.156-18.660Q324.156-21.747 326.852-23.874Q329.547-26 333.734-26L333.734-26Q338.125-26 340.867-23.734Q343.609-21.469 343.609-17.922L343.609-17.922L339.156-17.922Q339.156-19.734 337.617-21.055Q336.078-22.375 333.734-22.375L333.734-22.375Q331.313-22.375 329.945-21.388Q328.578-20.400 328.578-18.806L328.578-18.806Q328.578-17.314 329.852-16.553Q331.125-15.793 334.438-15.069Q337.750-14.344 339.805-13.338Q341.859-12.332 342.852-10.922Q343.844-9.512 343.844-7.469L343.844-7.469Q343.844-4.085 341.070-2.043Q338.297 0 333.875 0L333.875 0Q330.766 0 328.375-1.102Q325.984-2.203 324.625-4.180Q323.266-6.156 323.266-8.453L323.266-8.453L327.703-8.453Q327.813-6.234 329.477-4.930Q331.141-3.625 333.875-3.625L333.875-3.625Q336.391-3.625 337.906-4.596Q339.422-5.567 339.422-7.179ZM353.922-32L358.359-32L358.359-26L363.188-26L363.188-22.578L358.359-22.578L358.359-6.830Q358.359-5.313 359-4.547Q359.641-3.781 361.203-3.781L361.203-3.781Q361.969-3.781 363.313-4.078L363.313-4.078L363.313-0.484Q361.563 0 359.906 0L359.906 0Q356.938 0 355.430-1.768Q353.922-3.535 353.922-6.778L353.922-6.778L353.922-22.578L349.219-22.578L349.219-26L353.922-26L353.922-32ZM382.859-25.672L382.859-21.563Q381.859-21.719 380.688-21.719L380.688-21.719Q376.328-21.719 374.781-18.076L374.781-18.076L374.781 0L370.344 0L370.344-26L374.656-26L374.734-22.579Q376.906-26 380.906-26L380.906-26Q382.188-26 382.859-25.672L382.859-25.672ZM387.172-12.939L387.172-13.242Q387.172-16.920 388.672-19.863Q390.172-22.807 392.836-24.403Q395.500-26 398.922-26L398.922-26Q404.219-26 407.484-22.459Q410.750-18.917 410.750-13.030L410.750-13.030L410.750-12.728Q410.750-9.065 409.297-6.159Q407.844-3.254 405.156-1.627Q402.469 0 398.969 0L398.969 0Q393.703 0 390.438-3.549Q387.172-7.098 387.172-12.939L387.172-12.939ZM391.625-12.731L391.625-12.731Q391.625-8.604 393.625-6.115Q395.625-3.625 398.969-3.625L398.969-3.625Q402.344-3.625 404.328-6.152Q406.313-8.679 406.313-13.239L406.313-13.239Q406.313-17.306 404.297-19.841Q402.281-22.375 398.922-22.375L398.922-22.375Q395.641-22.375 393.633-19.878Q391.625-17.381 391.625-12.731ZM418.344-26L422.531-26L422.688-22.332Q425.641-26 430.438-26L430.438-26Q438.641-26 438.703-16.876L438.703-16.876L438.703 0L434.281 0L434.281-16.853Q434.266-19.621 433.008-20.935Q431.750-22.250 429.094-22.250L429.094-22.250Q426.938-22.250 425.313-21.120Q423.688-19.990 422.781-18.160L422.781-18.160L422.781 0L418.344 0L418.344-26ZM446.172-12.939L446.172-13.242Q446.172-16.920 447.672-19.863Q449.172-22.807 451.836-24.403Q454.500-26 457.922-26L457.922-26Q463.219-26 466.484-22.459Q469.750-18.917 469.750-13.030L469.750-13.030L469.750-12.728Q469.750-9.065 468.297-6.159Q466.844-3.254 464.156-1.627Q461.469 0 457.969 0L457.969 0Q452.703 0 449.438-3.549Q446.172-7.098 446.172-12.939L446.172-12.939ZM450.625-12.731L450.625-12.731Q450.625-8.604 452.625-6.115Q454.625-3.625 457.969-3.625L457.969-3.625Q461.344-3.625 463.328-6.152Q465.313-8.679 465.313-13.239L465.313-13.239Q465.313-17.306 463.297-19.841Q461.281-22.375 457.922-22.375L457.922-22.375Q454.641-22.375 452.633-19.878Q450.625-17.381 450.625-12.731ZM476.328-26L480.516-26L480.625-22.702Q483.484-26 488.313-26L488.313-26Q493.750-26 495.703-21.900L495.703-21.900Q497-23.734 499.070-24.867Q501.141-26 503.953-26L503.953-26Q512.484-26 512.625-17.107L512.625-17.107L512.625 0L508.188 0L508.188-16.807Q508.188-19.544 506.922-20.897Q505.656-22.250 502.672-22.250L502.672-22.250Q500.203-22.250 498.578-20.805Q496.953-19.359 496.688-16.899L496.688-16.899L496.688 0L492.234 0L492.234-16.699Q492.234-22.250 486.703-22.250L486.703-22.250Q482.359-22.250 480.750-18.606L480.750-18.606L480.750 0L476.328 0L476.328-26ZM526.156-26L526.156 0L521.734 0L521.734-26L526.156-26ZM521.375-32.500L521.375-32.500Q521.375-33.578 522.031-34.320Q522.688-35.063 523.984-35.063Q525.281-35.063 525.945-34.320Q526.609-33.578 526.609-32.500Q526.609-31.422 525.945-30.711Q525.281-30 523.984-30Q522.688-30 522.031-30.711Q521.375-31.422 521.375-32.500ZM550.422-7.179L550.422-7.179Q550.422-8.897 549.070-9.845Q547.719-10.794 544.359-11.481Q541-12.168 539.023-13.144Q537.047-14.120 536.102-15.467Q535.156-16.814 535.156-18.660L535.156-18.660Q535.156-21.747 537.852-23.874Q540.547-26 544.734-26L544.734-26Q549.125-26 551.867-23.734Q554.609-21.469 554.609-17.922L554.609-17.922L550.156-17.922Q550.156-19.734 548.617-21.055Q547.078-22.375 544.734-22.375L544.734-22.375Q542.313-22.375 540.945-21.388Q539.578-20.400 539.578-18.806L539.578-18.806Q539.578-17.314 540.852-16.553Q542.125-15.793 545.438-15.069Q548.750-14.344 550.805-13.338Q552.859-12.332 553.852-10.922Q554.844-9.512 554.844-7.469L554.844-7.469Q554.844-4.085 552.070-2.043Q549.297 0 544.875 0L544.875 0Q541.766 0 539.375-1.102Q536.984-2.203 535.625-4.180Q534.266-6.156 534.266-8.453L534.266-8.453L538.703-8.453Q538.813-6.234 540.477-4.930Q542.141-3.625 544.875-3.625L544.875-3.625Q547.391-3.625 548.906-4.596Q550.422-5.567 550.422-7.179ZM572.734-3.625L572.734-3.625Q575.109-3.625 576.875-5.055Q578.641-6.484 578.828-8.641L578.828-8.641L583.016-8.641Q582.906-6.422 581.492-4.414Q580.078-2.406 577.719-1.203Q575.359 0 572.734 0L572.734 0Q567.453 0 564.328-3.420Q561.203-6.841 561.203-12.773L561.203-12.773L561.203-13.499Q561.203-17.162 562.594-20.007Q563.984-22.852 566.578-24.426Q569.172-26 572.703-26L572.703-26Q577.063-26 579.945-23.398Q582.828-20.797 583.016-16.625L583.016-16.625L578.828-16.625Q578.641-19.141 576.930-20.758Q575.219-22.375 572.703-22.375L572.703-22.375Q569.344-22.375 567.484-20.050Q565.625-17.725 565.625-13.329L565.625-13.329L565.625-12.522Q565.625-8.245 567.469-5.935Q569.313-3.625 572.734-3.625ZM594.781-37L594.781-22.440Q597.719-26 602.438-26L602.438-26Q610.641-26 610.703-16.876L610.703-16.876L610.703 0L606.281 0L606.281-16.853Q606.266-19.621 605.008-20.935Q603.750-22.250 601.094-22.250L601.094-22.250Q598.938-22.250 597.313-21.120Q595.688-19.990 594.781-18.160L594.781-18.160L594.781 0L590.344 0L590.344-37L594.781-37ZM630.094 0L630.094 0Q624.828 0 621.523-3.352Q618.219-6.704 618.219-12.304L618.219-12.304L618.219-13.106Q618.219-16.829 619.695-19.757Q621.172-22.686 623.813-24.343Q626.453-26 629.547-26L629.547-26Q634.594-26 637.391-22.690Q640.188-19.381 640.188-13.197L640.188-13.197L640.188-11.359L622.656-11.359Q622.750-7.889 624.891-5.757Q627.031-3.625 630.328-3.625L630.328-3.625Q632.672-3.625 634.305-4.517Q635.938-5.409 637.156-6.886L637.156-6.886L639.859-4.843Q636.594 0 630.094 0ZM629.547-22.375L629.547-22.375Q626.859-22.375 625.039-20.434Q623.219-18.493 622.797-15L622.797-15L635.766-15L635.766-15.326Q635.578-18.680 633.945-20.527Q632.313-22.375 629.547-22.375ZM674.125 0L662.047 0L662.047-35L673.438-35Q679.109-35 681.969-32.628Q684.828-30.257 684.828-25.624L684.828-25.624Q684.828-23.166 683.438-21.275Q682.047-19.384 679.656-18.344L679.656-18.344Q682.469-17.546 684.109-15.333Q685.750-13.121 685.750-10.055L685.750-10.055Q685.750-5.364 682.711-2.682Q679.672 0 674.125 0L674.125 0ZM674.297-16.313L666.641-16.313L666.641-3.750L674.219-3.750Q677.422-3.750 679.281-5.416Q681.141-7.082 681.141-10.008L681.141-10.008Q681.141-16.313 674.297-16.313L674.297-16.313ZM666.641-31.219L666.641-20L673.578-20Q676.594-20 678.398-21.527Q680.203-23.054 680.203-25.665L680.203-25.665Q680.203-28.576 678.531-29.898Q676.859-31.219 673.438-31.219L673.438-31.219L666.641-31.219ZM698.156-26L698.156 0L693.734 0L693.734-26L698.156-26ZM693.375-32.500L693.375-32.500Q693.375-33.578 694.031-34.320Q694.688-35.063 695.984-35.063Q697.281-35.063 697.945-34.320Q698.609-33.578 698.609-32.500Q698.609-31.422 697.945-30.711Q697.281-30 695.984-30Q694.688-30 694.031-30.711Q693.375-31.422 693.375-32.500ZM712.156-37L712.156 0L707.734 0L707.734-37L712.156-37ZM720.266-12.894L720.266-13.212Q720.266-18.978 723.094-22.489Q725.922-26 730.484-26L730.484-26Q735.031-26 737.688-22.988L737.688-22.988L737.688-37L742.125-37L742.125 0L738.047 0L737.828-3.163Q735.172 0 730.438 0L730.438 0Q725.938 0 723.102-3.572Q720.266-7.143 720.266-12.894L720.266-12.894ZM724.703-12.731L724.703-12.731Q724.703-8.517 726.523-6.142Q728.344-3.766 731.547-3.766L731.547-3.766Q735.750-3.766 737.688-7.382L737.688-7.382L737.688-18.753Q735.703-22.250 731.594-22.250L731.594-22.250Q728.344-22.250 726.523-19.844Q724.703-17.438 724.703-12.731ZM767.422 0L767.328-3.004Q764.750 0 759.750 0L759.750 0Q755.609 0 753.445-2.372Q751.281-4.744 751.250-9.396L751.250-9.396L751.250-26L755.688-26L755.688-9.543Q755.688-3.766 760.469-3.766L760.469-3.766Q765.531-3.766 767.219-7.484L767.219-7.484L767.219-26L771.641-26L771.641 0L767.422 0ZM780.344-26L784.531-26L784.688-22.332Q787.641-26 792.438-26L792.438-26Q800.641-26 800.703-16.876L800.703-16.876L800.703 0L796.281 0L796.281-16.853Q796.266-19.621 795.008-20.935Q793.750-22.250 791.094-22.250L791.094-22.250Q788.938-22.250 787.313-21.120Q785.688-19.990 784.781-18.160L784.781-18.160L784.781 0L780.344 0L780.344-26ZM808.297-13.212L808.297-13.212Q808.297-19.084 811.094-22.542Q813.891-26 818.516-26L818.516-26Q823.250-26 825.906-22.761L825.906-22.761L826.125-26L830.172-26L830.172-0.789Q830.172 4.231 827.188 7.116Q824.203 10 819.188 10L819.188 10Q816.391 10 813.711 8.768Q811.031 7.536 809.609 5.395L809.609 5.395L811.906 2.657Q814.750 6.391 818.875 6.391L818.875 6.391Q822.109 6.391 823.914 4.530Q825.719 2.670 825.719-0.699L825.719-0.699L825.719-2.966Q823.063 0 818.469 0L818.469 0Q813.922 0 811.109-3.549Q808.297-7.098 808.297-13.212ZM812.750-12.731L812.750-12.731Q812.750-8.547 814.547-6.156Q816.344-3.766 819.563-3.766L819.563-3.766Q823.750-3.766 825.719-7.397L825.719-7.397L825.719-18.709Q823.688-22.250 819.609-22.250L819.609-22.250Q816.391-22.250 814.570-19.844Q812.750-17.438 812.750-12.731ZM853.422-7.179L853.422-7.179Q853.422-8.897 852.070-9.845Q850.719-10.794 847.359-11.481Q844-12.168 842.023-13.144Q840.047-14.120 839.102-15.467Q838.156-16.814 838.156-18.660L838.156-18.660Q838.156-21.747 840.852-23.874Q843.547-26 847.734-26L847.734-26Q852.125-26 854.867-23.734Q857.609-21.469 857.609-17.922L857.609-17.922L853.156-17.922Q853.156-19.734 851.617-21.055Q850.078-22.375 847.734-22.375L847.734-22.375Q845.313-22.375 843.945-21.388Q842.578-20.400 842.578-18.806L842.578-18.806Q842.578-17.314 843.852-16.553Q845.125-15.793 848.438-15.069Q851.750-14.344 853.805-13.338Q855.859-12.332 856.852-10.922Q857.844-9.512 857.844-7.469L857.844-7.469Q857.844-4.085 855.070-2.043Q852.297 0 847.875 0L847.875 0Q844.766 0 842.375-1.102Q839.984-2.203 838.625-4.180Q837.266-6.156 837.266-8.453L837.266-8.453L841.703-8.453Q841.813-6.234 843.477-4.930Q845.141-3.625 847.875-3.625L847.875-3.625Q850.391-3.625 851.906-4.596Q853.422-5.567 853.422-7.179ZM874.563-17L874.563-13.375L862.891-13.375L862.891-17L874.563-17ZM911.422 0L911.328-3.004Q908.750 0 903.750 0L903.750 0Q899.609 0 897.445-2.372Q895.281-4.744 895.250-9.396L895.250-9.396L895.250-26L899.688-26L899.688-9.543Q899.688-3.766 904.469-3.766L904.469-3.766Q909.531-3.766 911.219-7.484L911.219-7.484L911.219-26L915.641-26L915.641 0L911.422 0ZM924.344-26L928.531-26L928.688-22.332Q931.641-26 936.438-26L936.438-26Q944.641-26 944.703-16.876L944.703-16.876L944.703 0L940.281 0L940.281-16.853Q940.266-19.621 939.008-20.935Q937.750-22.250 935.094-22.250L935.094-22.250Q932.938-22.250 931.313-21.120Q929.688-19.990 928.781-18.160L928.781-18.160L928.781 0L924.344 0L924.344-26ZM952.266-12.894L952.266-13.212Q952.266-18.978 955.094-22.489Q957.922-26 962.484-26L962.484-26Q967.031-26 969.688-22.988L969.688-22.988L969.688-37L974.125-37L974.125 0L970.047 0L969.828-3.163Q967.172 0 962.438 0L962.438 0Q957.938 0 955.102-3.572Q952.266-7.143 952.266-12.894L952.266-12.894ZM956.703-12.731L956.703-12.731Q956.703-8.517 958.523-6.142Q960.344-3.766 963.547-3.766L963.547-3.766Q967.750-3.766 969.688-7.382L969.688-7.382L969.688-18.753Q967.703-22.250 963.594-22.250L963.594-22.250Q960.344-22.250 958.523-19.844Q956.703-17.438 956.703-12.731ZM1024.844-18.562L1024.844-16.408Q1024.844-11.397 1023.117-7.669Q1021.391-3.942 1018.234-1.971Q1015.078 0 1010.875 0L1010.875 0Q1006.750 0 1003.570-1.978Q1000.391-3.957 998.633-7.616Q996.875-11.275 996.828-16.102L996.828-16.102L996.828-18.562Q996.828-23.466 998.570-27.232Q1000.313-30.997 1003.508-32.999Q1006.703-35 1010.813-35L1010.813-35Q1015-35 1018.195-33.022Q1021.391-31.043 1023.117-27.293Q1024.844-23.542 1024.844-18.562L1024.844-18.562ZM1020.266-16.080L1020.266-18.600Q1020.266-24.611 1017.781-27.829Q1015.297-31.047 1010.813-31.047L1010.813-31.047Q1006.469-31.047 1003.969-27.829Q1001.469-24.611 1001.391-18.903L1001.391-18.903L1001.391-16.414Q1001.391-10.570 1003.914-7.238Q1006.438-3.906 1010.875-3.906L1010.875-3.906Q1015.313-3.906 1017.758-7.056Q1020.203-10.206 1020.266-16.080L1020.266-16.080ZM1003.422-40.500L1003.422-40.500Q1003.422-41.578 1004.078-42.313Q1004.734-43.047 1006.023-43.047Q1007.313-43.047 1007.984-42.313Q1008.656-41.578 1008.656-40.500Q1008.656-39.422 1007.984-38.711Q1007.313-38 1006.023-38Q1004.734-38 1004.078-38.711Q1003.422-39.422 1003.422-40.500ZM1013.703-40.477L1013.703-40.477Q1013.703-41.545 1014.359-42.280Q1015.016-43.016 1016.313-43.016Q1017.609-43.016 1018.273-42.280Q1018.938-41.545 1018.938-40.477Q1018.938-39.409 1018.273-38.704Q1017.609-38 1016.313-38Q1015.016-38 1014.359-38.704Q1013.703-39.409 1013.703-40.477ZM1038.953 0L1034.531 0L1034.531-22.578L1030.438-22.578L1030.438-26L1034.531-26L1034.531-28.572Q1034.531-32.597 1036.758-34.798Q1038.984-37 1043.047-37L1043.047-37Q1044.578-37 1046.078-36.594L1046.078-36.594L1045.844-33Q1044.719-33.219 1043.453-33.219L1043.453-33.219Q1041.297-33.219 1040.125-32.021Q1038.953-30.822 1038.953-28.590L1038.953-28.590L1038.953-26L1044.484-26L1044.484-22.578L1038.953-22.578L1038.953 0ZM1057.953 0L1053.531 0L1053.531-22.578L1049.438-22.578L1049.438-26L1053.531-26L1053.531-28.572Q1053.531-32.597 1055.758-34.798Q1057.984-37 1062.047-37L1062.047-37Q1063.578-37 1065.078-36.594L1065.078-36.594L1064.844-33Q1063.719-33.219 1062.453-33.219L1062.453-33.219Q1060.297-33.219 1059.125-32.021Q1057.953-30.822 1057.953-28.590L1057.953-28.590L1057.953-26L1063.484-26L1063.484-22.578L1057.953-22.578L1057.953 0ZM1081.094 0L1081.094 0Q1075.828 0 1072.523-3.352Q1069.219-6.704 1069.219-12.304L1069.219-12.304L1069.219-13.106Q1069.219-16.829 1070.695-19.757Q1072.172-22.686 1074.813-24.343Q1077.453-26 1080.547-26L1080.547-26Q1085.594-26 1088.391-22.690Q1091.188-19.381 1091.188-13.197L1091.188-13.197L1091.188-11.359L1073.656-11.359Q1073.750-7.889 1075.891-5.757Q1078.031-3.625 1081.328-3.625L1081.328-3.625Q1083.672-3.625 1085.305-4.517Q1086.938-5.409 1088.156-6.886L1088.156-6.886L1090.859-4.843Q1087.594 0 1081.094 0ZM1080.547-22.375L1080.547-22.375Q1077.859-22.375 1076.039-20.434Q1074.219-18.493 1073.797-15L1073.797-15L1086.766-15L1086.766-15.326Q1086.578-18.680 1084.945-20.527Q1083.313-22.375 1080.547-22.375ZM1098.344-26L1102.531-26L1102.688-22.332Q1105.641-26 1110.438-26L1110.438-26Q1118.641-26 1118.703-16.876L1118.703-16.876L1118.703 0L1114.281 0L1114.281-16.853Q1114.266-19.621 1113.008-20.935Q1111.750-22.250 1109.094-22.250L1109.094-22.250Q1106.938-22.250 1105.313-21.120Q1103.688-19.990 1102.781-18.160L1102.781-18.160L1102.781 0L1098.344 0L1098.344-26ZM1128.922-32L1133.359-32L1133.359-26L1138.188-26L1138.188-22.578L1133.359-22.578L1133.359-6.830Q1133.359-5.313 1134-4.547Q1134.641-3.781 1136.203-3.781L1136.203-3.781Q1136.969-3.781 1138.313-4.078L1138.313-4.078L1138.313-0.484Q1136.563 0 1134.906 0L1134.906 0Q1131.938 0 1130.430-1.768Q1128.922-3.535 1128.922-6.778L1128.922-6.778L1128.922-22.578L1124.219-22.578L1124.219-26L1128.922-26L1128.922-32ZM1150.156-37L1150.156 0L1145.734 0L1145.734-37L1150.156-37ZM1163.156-26L1163.156 0L1158.734 0L1158.734-26L1163.156-26ZM1158.375-32.500L1158.375-32.500Q1158.375-33.578 1159.031-34.320Q1159.688-35.063 1160.984-35.063Q1162.281-35.063 1162.945-34.320Q1163.609-33.578 1163.609-32.500Q1163.609-31.422 1162.945-30.711Q1162.281-30 1160.984-30Q1159.688-30 1159.031-30.711Q1158.375-31.422 1158.375-32.500ZM1182.734-3.625L1182.734-3.625Q1185.109-3.625 1186.875-5.055Q1188.641-6.484 1188.828-8.641L1188.828-8.641L1193.016-8.641Q1192.906-6.422 1191.492-4.414Q1190.078-2.406 1187.719-1.203Q1185.359 0 1182.734 0L1182.734 0Q1177.453 0 1174.328-3.420Q1171.203-6.841 1171.203-12.773L1171.203-12.773L1171.203-13.499Q1171.203-17.162 1172.594-20.007Q1173.984-22.852 1176.578-24.426Q1179.172-26 1182.703-26L1182.703-26Q1187.063-26 1189.945-23.398Q1192.828-20.797 1193.016-16.625L1193.016-16.625L1188.828-16.625Q1188.641-19.141 1186.930-20.758Q1185.219-22.375 1182.703-22.375L1182.703-22.375Q1179.344-22.375 1177.484-20.050Q1175.625-17.725 1175.625-13.329L1175.625-13.329L1175.625-12.522Q1175.625-8.245 1177.469-5.935Q1179.313-3.625 1182.734-3.625ZM1204.781-37L1204.781-22.440Q1207.719-26 1212.438-26L1212.438-26Q1220.641-26 1220.703-16.876L1220.703-16.876L1220.703 0L1216.281 0L1216.281-16.853Q1216.266-19.621 1215.008-20.935Q1213.750-22.250 1211.094-22.250L1211.094-22.250Q1208.938-22.250 1207.313-21.120Q1205.688-19.990 1204.781-18.160L1204.781-18.160L1204.781 0L1200.344 0L1200.344-37L1204.781-37ZM1245.594 0L1236.578-12.035L1233.797-9.132L1233.797 0L1229.375 0L1229.375-37L1233.797-37L1233.797-14.577L1236.172-17.448L1244.234-26L1249.609-26L1239.547-15.142L1250.781 0L1245.594 0ZM1266.094 0L1266.094 0Q1260.828 0 1257.523-3.352Q1254.219-6.704 1254.219-12.304L1254.219-12.304L1254.219-13.106Q1254.219-16.829 1255.695-19.757Q1257.172-22.686 1259.813-24.343Q1262.453-26 1265.547-26L1265.547-26Q1270.594-26 1273.391-22.690Q1276.188-19.381 1276.188-13.197L1276.188-13.197L1276.188-11.359L1258.656-11.359Q1258.750-7.889 1260.891-5.757Q1263.031-3.625 1266.328-3.625L1266.328-3.625Q1268.672-3.625 1270.305-4.517Q1271.938-5.409 1273.156-6.886L1273.156-6.886L1275.859-4.843Q1272.594 0 1266.094 0ZM1265.547-22.375L1265.547-22.375Q1262.859-22.375 1261.039-20.434Q1259.219-18.493 1258.797-15L1258.797-15L1271.766-15L1271.766-15.326Q1271.578-18.680 1269.945-20.527Q1268.313-22.375 1265.547-22.375ZM1288.156-26L1288.156 0L1283.734 0L1283.734-26L1288.156-26ZM1283.375-32.500L1283.375-32.500Q1283.375-33.578 1284.031-34.320Q1284.688-35.063 1285.984-35.063Q1287.281-35.063 1287.945-34.320Q1288.609-33.578 1288.609-32.500Q1288.609-31.422 1287.945-30.711Q1287.281-30 1285.984-30Q1284.688-30 1284.031-30.711Q1283.375-31.422 1283.375-32.500ZM1298.922-32L1303.359-32L1303.359-26L1308.188-26L1308.188-22.578L1303.359-22.578L1303.359-6.830Q1303.359-5.313 1304-4.547Q1304.641-3.781 1306.203-3.781L1306.203-3.781Q1306.969-3.781 1308.313-4.078L1308.313-4.078L1308.313-0.484Q1306.563 0 1304.906 0L1304.906 0Q1301.938 0 1300.430-1.768Q1298.922-3.535 1298.922-6.778L1298.922-6.778L1298.922-22.578L1294.219-22.578L1294.219-26L1298.922-26L1298.922-32ZM1330.422-7.179L1330.422-7.179Q1330.422-8.897 1329.070-9.845Q1327.719-10.794 1324.359-11.481Q1321-12.168 1319.023-13.144Q1317.047-14.120 1316.102-15.467Q1315.156-16.814 1315.156-18.660L1315.156-18.660Q1315.156-21.747 1317.852-23.874Q1320.547-26 1324.734-26L1324.734-26Q1329.125-26 1331.867-23.734Q1334.609-21.469 1334.609-17.922L1334.609-17.922L1330.156-17.922Q1330.156-19.734 1328.617-21.055Q1327.078-22.375 1324.734-22.375L1324.734-22.375Q1322.313-22.375 1320.945-21.388Q1319.578-20.400 1319.578-18.806L1319.578-18.806Q1319.578-17.314 1320.852-16.553Q1322.125-15.793 1325.438-15.069Q1328.750-14.344 1330.805-13.338Q1332.859-12.332 1333.852-10.922Q1334.844-9.512 1334.844-7.469L1334.844-7.469Q1334.844-4.085 1332.070-2.043Q1329.297 0 1324.875 0L1324.875 0Q1321.766 0 1319.375-1.102Q1316.984-2.203 1315.625-4.180Q1314.266-6.156 1314.266-8.453L1314.266-8.453L1318.703-8.453Q1318.813-6.234 1320.477-4.930Q1322.141-3.625 1324.875-3.625L1324.875-3.625Q1327.391-3.625 1328.906-4.596Q1330.422-5.567 1330.422-7.179ZM1362.969 0L1358.328 0Q1357.953-0.873 1357.703-3.118L1357.703-3.118Q1354.625 0 1350.344 0L1350.344 0Q1346.516 0 1344.063-2.147Q1341.609-4.293 1341.609-7.568L1341.609-7.568Q1341.609-11.568 1344.680-13.784Q1347.750-16 1353.328-16L1353.328-16L1357.641-16L1357.641-17.843Q1357.641-19.942 1356.250-21.190Q1354.859-22.438 1352.156-22.438L1352.156-22.438Q1349.797-22.438 1348.188-21.380Q1346.578-20.322 1346.578-18.815L1346.578-18.815L1342.141-18.815Q1342.141-20.633 1343.516-22.334Q1344.891-24.035 1347.242-25.018Q1349.594-26 1352.422-26L1352.422-26Q1356.891-26 1359.430-23.796Q1361.969-21.592 1362.063-17.724L1362.063-17.724L1362.063-5.964Q1362.063-2.451 1362.969-0.385L1362.969-0.385L1362.969 0ZM1350.984-3.859L1350.984-3.859Q1353.063-3.859 1354.930-4.915Q1356.797-5.972 1357.641-7.655L1357.641-7.655L1357.641-12.859L1354.172-12.859Q1346.031-12.859 1346.031-8.191L1346.031-8.191Q1346.031-6.155 1347.422-5.007Q1348.813-3.859 1350.984-3.859ZM1383.859-25.672L1383.859-21.563Q1382.859-21.719 1381.688-21.719L1381.688-21.719Q1377.328-21.719 1375.781-18.076L1375.781-18.076L1375.781 0L1371.344 0L1371.344-26L1375.656-26L1375.734-22.579Q1377.906-26 1381.906-26L1381.906-26Q1383.188-26 1383.859-25.672L1383.859-25.672ZM1411.266-13.106L1411.266-12.728Q1411.266-6.977 1408.539-3.488Q1405.813 0 1401.219 0L1401.219 0Q1396.313 0 1393.625-3.447L1393.625-3.447L1393.422 0L1389.344 0L1389.344-37L1393.781-37L1393.781-22.792Q1396.453-26 1401.164-26Q1405.875-26 1408.570-22.549Q1411.266-19.099 1411.266-13.106L1411.266-13.106ZM1406.844-13.210L1406.844-13.210Q1406.844-17.543 1405.094-19.896Q1403.344-22.250 1400.063-22.250L1400.063-22.250Q1395.688-22.250 1393.781-18.365L1393.781-18.365L1393.781-7.651Q1395.813-3.766 1400.109-3.766L1400.109-3.766Q1403.297-3.766 1405.070-6.119Q1406.844-8.473 1406.844-13.210ZM1430.094 0L1430.094 0Q1424.828 0 1421.523-3.352Q1418.219-6.704 1418.219-12.304L1418.219-12.304L1418.219-13.106Q1418.219-16.829 1419.695-19.757Q1421.172-22.686 1423.813-24.343Q1426.453-26 1429.547-26L1429.547-26Q1434.594-26 1437.391-22.690Q1440.188-19.381 1440.188-13.197L1440.188-13.197L1440.188-11.359L1422.656-11.359Q1422.750-7.889 1424.891-5.757Q1427.031-3.625 1430.328-3.625L1430.328-3.625Q1432.672-3.625 1434.305-4.517Q1435.938-5.409 1437.156-6.886L1437.156-6.886L1439.859-4.843Q1436.594 0 1430.094 0ZM1429.547-22.375L1429.547-22.375Q1426.859-22.375 1425.039-20.434Q1423.219-18.493 1422.797-15L1422.797-15L1435.766-15L1435.766-15.326Q1435.578-18.680 1433.945-20.527Q1432.313-22.375 1429.547-22.375ZM1452.156-26L1452.156 0L1447.734 0L1447.734-26L1452.156-26ZM1447.375-32.500L1447.375-32.500Q1447.375-33.578 1448.031-34.320Q1448.688-35.063 1449.984-35.063Q1451.281-35.063 1451.945-34.320Q1452.609-33.578 1452.609-32.500Q1452.609-31.422 1451.945-30.711Q1451.281-30 1449.984-30Q1448.688-30 1448.031-30.711Q1447.375-31.422 1447.375-32.500ZM1461.922-32L1466.359-32L1466.359-26L1471.188-26L1471.188-22.578L1466.359-22.578L1466.359-6.830Q1466.359-5.313 1467-4.547Q1467.641-3.781 1469.203-3.781L1469.203-3.781Q1469.969-3.781 1471.313-4.078L1471.313-4.078L1471.313-0.484Q1469.563 0 1467.906 0L1467.906 0Q1464.938 0 1463.430-1.768Q1461.922-3.535 1461.922-6.778L1461.922-6.778L1461.922-22.578L1457.219-22.578L1457.219-26L1461.922-26L1461.922-32Z"/></g></g></svg>